<svg xmlns="http://www.w3.org/2000/svg" xmlns:xlink="http://www.w3.org/1999/xlink" xmlns:lucid="lucid" width="2443" height="1803"><g transform="translate(1.5 721.5)" lucid:page-tab-id="0_0"><path d="M320 346a6 6 0 0 1 6-6h148a6 6 0 0 1 6 6v108a6 6 0 0 1-6 6H326a6 6 0 0 1-6-6z" stroke="#5e5e5e" stroke-width="3" fill="#fff"/><use xlink:href="#a" transform="matrix(1,0,0,1,332,352) translate(46.425925925925924 53.77777777777778)"/><path d="M1760-334.5a6 6 0 0 1 6-6h148a6 6 0 0 1 6 6v108a6 6 0 0 1-6 6h-148a6 6 0 0 1-6-6z" stroke="#5e5e5e" stroke-width="3" fill="#fff"/><use xlink:href="#b" transform="matrix(1,0,0,1,1772,-328.49690907770673) translate(30.99382716049383 53.77777777777778)"/><path d="M800 206a6 6 0 0 1 6-6h148a6 6 0 0 1 6 6v108a6 6 0 0 1-6 6H806a6 6 0 0 1-6-6z" stroke="#5e5e5e" stroke-width="3" fill="#fff"/><use xlink:href="#c" transform="matrix(1,0,0,1,812,212) translate(37.81481481481482 53.77777777777778)"/><path d="M1600 486a6 6 0 0 1 6-6h148a6 6 0 0 1 6 6v108a6 6 0 0 1-6 6h-148a6 6 0 0 1-6-6z" stroke="#5e5e5e" stroke-width="3" fill="#fff"/><use xlink:href="#d" transform="matrix(1,0,0,1,1612,492) translate(2.0432098765432016 53.77777777777778)"/><path d="M800 486a6 6 0 0 1 6-6h148a6 6 0 0 1 6 6v108a6 6 0 0 1-6 6H806a6 6 0 0 1-6-6z" stroke="#5e5e5e" stroke-width="3" fill="#fff"/><use xlink:href="#e" transform="matrix(1,0,0,1,812,492) translate(42.135802469135804 53.77777777777778)"/><path d="M642.25 399.33l155.5-138.66" stroke="#5e5e5e" stroke-width="2" fill="none"/><path d="M642.9 400.05l-1.48 1.33.08-1.36-.04-1.3.16-.13zM798.5 261.3l-.12.1-1.3-1.44 1.42-1.27z" stroke="#5e5e5e" stroke-width=".05" fill="#5e5e5e"/><path d="M797.75 539.33l-155.5-138.66" stroke="#5e5e5e" stroke-width="2" fill="none"/><path d="M798.5 538.7v2.6l-1.4-1.25 1.28-1.46zM642.9 399.95l-1.28 1.46-.2-.16.08-1.22-.05-1.37z" stroke="#5e5e5e" stroke-width=".05" fill="#5e5e5e"/><path d="M640 400c0 22.1-17.9 40-40 40s-40-17.9-40-40 17.9-40 40-40 40 17.9 40 40z" stroke="#5e5e5e" stroke-width="3" fill="#fff"/><use xlink:href="#f" transform="matrix(1,0,0,1,565,365) translate(28.82716049382716 39.65277777777778)"/><path d="M482.5 400h75" stroke="#5e5e5e" stroke-width="2" fill="none"/><path d="M482.53 400.98h-1.03v-1.96h1.03zM558.5 399.98l.03 1h-1.06v-1.96h1.1z" stroke="#5e5e5e" stroke-width=".05" fill="#5e5e5e"/><path d="M1275.2 483.6a8 8 0 0 1 9.6 0l70.4 52.8a4.5 4.5 0 0 1 0 7.2l-70.4 52.8a8 8 0 0 1-9.6 0l-70.4-52.8a4.5 4.5 0 0 1 0-7.2z" stroke="#5e5e5e" stroke-width="3" fill="#fff"/><use xlink:href="#g" transform="matrix(1,0,0,1,1205,485) translate(49.10993827160493 59.02777777777778)"/><path d="M1597.5 540h-238" stroke="#5e5e5e" stroke-width="2" fill="none"/><path d="M1598.5 540.98h-1.03V539h1.03zM1359.53 540.98h-1.1l.08-.98-.08-.98h1.1z" stroke="#5e5e5e" stroke-width=".05" fill="#5e5e5e"/><path d="M962.5 540h238" stroke="#5e5e5e" stroke-width="2" fill="none"/><path d="M962.53 540.98h-1.03V539h1.03zM1201.5 540l.08.98h-1.1V539h1.1z" stroke="#5e5e5e" stroke-width=".05" fill="#5e5e5e"/><path d="M960 506a6 6 0 0 1 6-6h28a6 6 0 0 1 6 6v28a6 6 0 0 1-6 6h-28a6 6 0 0 1-6-6z" stroke="#000" stroke-opacity="0" stroke-width="3" fill="#fff" fill-opacity="0"/><use xlink:href="#h" transform="matrix(1,0,0,1,965,505) translate(8.827160493827162 19.65277777777778)"/><path d="M1560 506a6 6 0 0 1 6-6h28a6 6 0 0 1 6 6v28a6 6 0 0 1-6 6h-28a6 6 0 0 1-6-6z" stroke="#000" stroke-opacity="0" stroke-width="3" fill="#fff" fill-opacity="0"/><use xlink:href="#i" transform="matrix(1,0,0,1,1565,505) translate(7.006172839506173 19.65277777777778)"/><path d="M1640 446a6 6 0 0 1 6-6h28a6 6 0 0 1 6 6v28a6 6 0 0 1-6 6h-28a6 6 0 0 1-6-6z" stroke="#000" stroke-opacity="0" stroke-width="3" fill="#fff" fill-opacity="0"/><use xlink:href="#h" transform="matrix(1,0,0,1,1645,445) translate(8.827160493827162 19.65277777777778)"/><path d="M1275.2-336.4a8 8 0 0 1 9.6 0l70.4 52.8a4.5 4.5 0 0 1 0 7.2l-70.4 52.8a8 8 0 0 1-9.6 0l-70.4-52.8a4.5 4.5 0 0 1 0-7.2z" stroke="#5e5e5e" stroke-width="3" fill="#fff"/><use xlink:href="#j" transform="matrix(1,0,0,1,1205,-335) translate(34.9124074074074 59.02777777777778)"/><path d="M880 197.5v-470.35a6 6 0 0 1 6-6h314.6" stroke="#5e5e5e" stroke-width="2" fill="none"/><path d="M880.98 198.5H879v-1.03H881zM1201.6-278.9l.3 1.03h-1.32v-1.95h.93z" stroke="#5e5e5e" stroke-width=".05" fill="#5e5e5e"/><path d="M1720-274.5a6 6 0 0 1 6-6h28a6 6 0 0 1 6 6v28a6 6 0 0 1-6 6h-28a6 6 0 0 1-6-6z" stroke="#000" stroke-opacity="0" stroke-width="3" fill="#fff" fill-opacity="0"/><use xlink:href="#i" transform="matrix(1,0,0,1,1725,-275.49690907770673) translate(7.006172839506173 19.65277777777778)"/><path d="M1920-14.5a6 6 0 0 1 6-6h148a6 6 0 0 1 6 6v108a6 6 0 0 1-6 6h-148a6 6 0 0 1-6-6z" stroke="#5e5e5e" stroke-width="3" fill="#fff"/><use xlink:href="#k" transform="matrix(1,0,0,1,1932,-8.496909077706732) translate(3.8950617283950493 53.77777777777778)"/><path d="M1600-14.5a6 6 0 0 1 6-6h148a6 6 0 0 1 6 6v108a6 6 0 0 1-6 6h-148a6 6 0 0 1-6-6z" stroke="#5e5e5e" stroke-width="3" fill="#fff"/><use xlink:href="#l" transform="matrix(1,0,0,1,1612,-8.496909077706732) translate(11.2716049382716 53.77777777777778)"/><path d="M1840.97-58.77l158.06 36.55" stroke="#5e5e5e" stroke-width="2" fill="none"/><path d="M1839.98-59l1.08-.03-.28 1.22-3.92-.92.1-.46zM2003.14-22.27l-.06.27h-4.13l.27-1.18z" stroke="#5e5e5e" stroke-width=".05" fill="#5e5e5e"/><path d="M1680.97-22.22l158.06-36.55" stroke="#5e5e5e" stroke-width="2" fill="none"/><path d="M1681.05-22h-4.13l-.06-.27 3.92-.9zM1843.14-58.72l-3.92.9-.3-1.24 1.06.07 3.02-.1h.05z" stroke="#5e5e5e" stroke-width=".05" fill="#5e5e5e"/><path d="M1880-100.5c0 22.1-17.9 40-40 40s-40-17.9-40-40 17.9-40 40-40 40 17.9 40 40z" stroke="#5e5e5e" stroke-width="3" fill="#fff"/><use xlink:href="#f" transform="matrix(1,0,0,1,1805,-135.49690907770673) translate(28.82716049382716 39.65277777777778)"/><path d="M1840-143v-75" stroke="#5e5e5e" stroke-width="2" fill="none"/><path d="M1840.97-141.94l-.95-.06-1 .04v-1.06h1.95zM1840.97-217.97h-1.94V-219h1.94z" stroke="#5e5e5e" stroke-width=".05" fill="#5e5e5e"/><path d="M1675.2 243.6a8 8 0 0 1 9.6 0l70.4 52.8a4.5 4.5 0 0 1 0 7.2l-70.4 52.8a8 8 0 0 1-9.6 0l-70.4-52.8a4.5 4.5 0 0 1 0-7.2z" stroke="#5e5e5e" stroke-width="3" fill="#fff"/><use xlink:href="#m" transform="matrix(1,0,0,1,1605,245) translate(33.67783950617283 59.02777777777778)"/><path d="M1680 360.5v117" stroke="#5e5e5e" stroke-width="2" fill="none"/><path d="M1680 359.5l.97-.06v1.1h-1.94v-1.1zM1680.97 478.5h-1.94v-1.03h1.94z" stroke="#5e5e5e" stroke-width=".05" fill="#5e5e5e"/><path d="M1680 102v137.5" stroke="#5e5e5e" stroke-width="2" fill="none"/><path d="M1680.97 102.03h-1.94V101h1.94zM1680.97 240.56l-.97-.06-.97.06v-1.1h1.94z" stroke="#5e5e5e" stroke-width=".05" fill="#5e5e5e"/><path d="M880 602.5V734a6 6 0 0 0 6 6h314.5" stroke="#5e5e5e" stroke-width="2" fill="none"/><path d="M880.98 602.53H879v-1.03H881zM1201.5 740l.08.98h-1.1V739h1.1z" stroke="#5e5e5e" stroke-width=".05" fill="#5e5e5e"/><path d="M1275.2 683.6a8 8 0 0 1 9.6 0l70.4 52.8a4.5 4.5 0 0 1 0 7.2l-70.4 52.8a8 8 0 0 1-9.6 0l-70.4-52.8a4.5 4.5 0 0 1 0-7.2z" stroke="#5e5e5e" stroke-width="3" fill="#fff"/><use xlink:href="#n" transform="matrix(1,0,0,1,1205,685) translate(36.82598765432098 59.02777777777778)"/><path d="M1600 686a6 6 0 0 1 6-6h148a6 6 0 0 1 6 6v108a6 6 0 0 1-6 6h-148a6 6 0 0 1-6-6z" stroke="#5e5e5e" stroke-width="3" fill="#fff"/><use xlink:href="#o" transform="matrix(1,0,0,1,1612,692) translate(42.135802469135804 53.77777777777778)"/><path d="M1359.5 740h238" stroke="#5e5e5e" stroke-width="2" fill="none"/><path d="M1359.53 740.98h-1.1l.08-.98-.08-.98h1.1zM1598.5 740.98h-1.03V739h1.03z" stroke="#5e5e5e" stroke-width=".05" fill="#5e5e5e"/><path d="M1995.2 483.6a8 8 0 0 1 9.6 0l70.4 52.8a4.5 4.5 0 0 1 0 7.2l-70.4 52.8a8 8 0 0 1-9.6 0l-70.4-52.8a4.5 4.5 0 0 1 0-7.2z" stroke="#5e5e5e" stroke-width="3" fill="#fff"/><use xlink:href="#p" transform="matrix(1,0,0,1,1925,485) translate(34.32598765432098 59.02777777777778)"/><path d="M1762.5 740H1994a6 6 0 0 0 6-6V600.5" stroke="#5e5e5e" stroke-width="2" fill="none"/><path d="M1762.53 740.98h-1.03V739h1.03zM2000 599.5l.97-.06v1.1h-1.94v-1.1z" stroke="#5e5e5e" stroke-width=".05" fill="#5e5e5e"/><path d="M2000 479.5V102" stroke="#5e5e5e" stroke-width="2" fill="none"/><path d="M2000.97 480.56l-.97-.06-.97.06v-1.1h1.94zM2000.97 102.03h-1.94V101h1.94z" stroke="#5e5e5e" stroke-width=".05" fill="#5e5e5e"/><path d="M880 606a6 6 0 0 1 6-6h28a6 6 0 0 1 6 6v28a6 6 0 0 1-6 6h-28a6 6 0 0 1-6-6z" stroke="#000" stroke-opacity="0" stroke-width="3" fill="#fff" fill-opacity="0"/><use xlink:href="#h" transform="matrix(1,0,0,1,885,605) translate(8.827160493827162 19.65277777777778)"/><path d="M1560 706a6 6 0 0 1 6-6h28a6 6 0 0 1 6 6v28a6 6 0 0 1-6 6h-28a6 6 0 0 1-6-6z" stroke="#000" stroke-opacity="0" stroke-width="3" fill="#fff" fill-opacity="0"/><use xlink:href="#i" transform="matrix(1,0,0,1,1565,705) translate(7.006172839506173 19.65277777777778)"/><path d="M1760 706a6 6 0 0 1 6-6h28a6 6 0 0 1 6 6v28a6 6 0 0 1-6 6h-28a6 6 0 0 1-6-6z" stroke="#000" stroke-opacity="0" stroke-width="3" fill="#fff" fill-opacity="0"/><use xlink:href="#h" transform="matrix(1,0,0,1,1765,705) translate(8.827160493827162 19.65277777777778)"/><path d="M1960 105.5a6 6 0 0 1 6-6h28a6 6 0 0 1 6 6v28a6 6 0 0 1-6 6h-28a6 6 0 0 1-6-6z" stroke="#000" stroke-opacity="0" stroke-width="3" fill="#fff" fill-opacity="0"/><use xlink:href="#i" transform="matrix(1,0,0,1,1965,104.50309092229327) translate(7.006172839506173 19.65277777777778)"/><path d="M1640 105.5a6 6 0 0 1 6-6h28a6 6 0 0 1 6 6v28a6 6 0 0 1-6 6h-28a6 6 0 0 1-6-6z" stroke="#000" stroke-opacity="0" stroke-width="3" fill="#fff" fill-opacity="0"/><use xlink:href="#i" transform="matrix(1,0,0,1,1645,104.50309092229327) translate(7.006172839506173 19.65277777777778)"/><path d="M1359.5-280h198.76a.25.25 0 0 0 .24-.25.25.25 0 0 1 .25-.25h198.75" stroke="#5e5e5e" stroke-width="2" fill="none"/><path d="M1359.53-279.02h-1.1l.08-.98-.08-.98h1.1zM1758.5-279.52h-1.03v-1.95h1.03z" stroke="#5e5e5e" stroke-width=".05" fill="#5e5e5e"/><path d="M160 300c11.05 0 20 8.95 20 20s-8.95 20-20 20H40c-11.05 0-20-8.95-20-20s8.95-20 20-20z" stroke="#5e5e5e" stroke-width="3" fill="#fff"/><use xlink:href="#q" transform="matrix(1,0,0,1,25,305) translate(60.19018518518518 19.65277777777778)"/><path d="M182.23 321.67l135.4 77.83" stroke="#5e5e5e" stroke-width="2" fill="none"/><path d="M182.74 320.83l-.97 1.7-.54-.3.27-2.1zM318.5 398.88v2.25l-1.38-.8.98-1.7z" stroke="#5e5e5e" stroke-width=".05" fill="#5e5e5e"/><path d="M160 360c11.05 0 20 8.95 20 20s-8.95 20-20 20H40c-11.05 0-20-8.95-20-20s8.95-20 20-20z" stroke="#5e5e5e" stroke-width="3" fill="#fff"/><use xlink:href="#r" transform="matrix(1,0,0,1,25,365) translate(47.25808641975309 19.65277777777778)"/><path d="M182.5 380l135 19.86" stroke="#5e5e5e" stroke-width="2" fill="none"/><path d="M182.65 379.05l-.28 1.92-.96-.14.1-.76-.04-1.2zM318.5 399v2l-1.16-.2.3-1.9z" stroke="#5e5e5e" stroke-width=".05" fill="#5e5e5e"/><path d="M160 420c11.05 0 20 8.95 20 20s-8.95 20-20 20H40c-11.05 0-20-8.95-20-20s8.95-20 20-20z" stroke="#5e5e5e" stroke-width="3" fill="#fff"/><use xlink:href="#s" transform="matrix(1,0,0,1,25,425) translate(48.55438271604938 19.65277777777778)"/><path d="M182.46 439.72l135.08-39.44" stroke="#5e5e5e" stroke-width="2" fill="none"/><path d="M182.76 440.65l-1.38.4.12-.98-.03-1.07.74-.22zM318.5 401.02l-.7.2-.56-1.87 1.26-.37z" stroke="#5e5e5e" stroke-width=".05" fill="#5e5e5e"/><path d="M160 480c11.05 0 20 8.95 20 20s-8.95 20-20 20H40c-11.05 0-20-8.95-20-20s8.95-20 20-20z" stroke="#5e5e5e" stroke-width="3" fill="#fff"/><use xlink:href="#t" transform="matrix(1,0,0,1,25,485) translate(44.1408024691358 19.65277777777778)"/><path d="M181.73 495.1l135.95-94.53" stroke="#5e5e5e" stroke-width="2" fill="none"/><path d="M182.3 495.9l-1.2.83-.4-2.1.5-.33zM318.5 401.2l-.3.2-1.1-1.6 1.4-1z" stroke="#5e5e5e" stroke-width=".05" fill="#5e5e5e"/><path d="M700 700c11.05 0 20 8.95 20 20s-8.95 20-20 20H580c-11.05 0-20-8.95-20-20s8.95-20 20-20z" stroke="#5e5e5e" stroke-width="3" fill="#fff"/><use xlink:href="#u" transform="matrix(1,0,0,1,565,705) translate(35.529691358024685 19.65277777777778)"/><path d="M722 719.2L798 583" stroke="#5e5e5e" stroke-width="2" fill="none"/><path d="M722.85 719.64l-1.67 3 .32-2.57-.04-1.2zM798.5 583.3l-1.35-.75 1.35-2.43z" stroke="#5e5e5e" stroke-width=".05" fill="#5e5e5e"/><path d="M1580 900c11.05 0 20 8.95 20 20s-8.95 20-20 20h-120c-11.05 0-20-8.95-20-20s8.95-20 20-20z" stroke="#5e5e5e" stroke-width="3" fill="#fff"/><use xlink:href="#v" transform="matrix(1,0,0,1,1445,905) translate(39.88154320987654 19.65277777777778)"/><path d="M1602.05 919.17l77.4-116.84" stroke="#5e5e5e" stroke-width="2" fill="none"/><path d="M1602.88 919.68l-1.64 2.48.26-2.1-.04-1.32zM1680.25 802.9l-1.63-1.08.2-.32h2.35z" stroke="#5e5e5e" stroke-width=".05" fill="#5e5e5e"/><path d="M1600 960c11.05 0 20 8.95 20 20s-8.95 20-20 20h-120c-11.05 0-20-8.95-20-20s8.95-20 20-20z" stroke="#5e5e5e" stroke-width="3" fill="#fff"/><use xlink:href="#w" transform="matrix(1,0,0,1,1465,965) translate(39.88154320987654 19.65277777777778)"/><path d="M1621.07 973.93l58.6-171.48" stroke="#5e5e5e" stroke-width="2" fill="none"/><path d="M1622 974.23l-.87 2.56-.6-3.08zM1680.6 802.8l-1.85-.64.22-.66h2.06z" stroke="#5e5e5e" stroke-width=".05" fill="#5e5e5e"/><path d="M1620 1020c11.05 0 20 8.95 20 20s-8.95 20-20 20h-120c-11.05 0-20-8.95-20-20s8.95-20 20-20z" stroke="#5e5e5e" stroke-width="3" fill="#fff"/><use xlink:href="#x" transform="matrix(1,0,0,1,1485,1025) translate(25.714876543209872 19.65277777777778)"/><path d="M1641.66 1039l38.18-236.5" stroke="#5e5e5e" stroke-width="2" fill="none"/><path d="M1642.63 1039.14l-.65 3.98-.84-.14.36-2.9-.04-1.13zM1680.8 802.67l-1.93-.3.14-.87h2z" stroke="#5e5e5e" stroke-width=".05" fill="#5e5e5e"/><path d="M1940 900c11.05 0 20 8.95 20 20s-8.95 20-20 20h-180c-11.05 0-20-8.95-20-20s8.95-20 20-20z" stroke="#5e5e5e" stroke-width="3" fill="#fff"/><use xlink:href="#y" transform="matrix(1,0,0,1,1745,905) translate(19.264259259259273 19.65277777777778)"/><path d="M1738.06 919.1l-57.62-116.7" stroke="#5e5e5e" stroke-width="2" fill="none"/><path d="M1738.5 919.93l.06 1.68.23 1.2-1.63-3.3 1.47-.7zM1681.33 802l-1.75.85-.67-1.35h2.2z" stroke="#5e5e5e" stroke-width=".05" fill="#5e5e5e"/><path d="M1920 960c11.05 0 20 8.95 20 20s-8.95 20-20 20h-180c-11.05 0-20-8.95-20-20s8.95-20 20-20z" stroke="#5e5e5e" stroke-width="3" fill="#fff"/><use xlink:href="#z" transform="matrix(1,0,0,1,1725,965) translate(45.807469135802464 19.65277777777778)"/><path d="M1718.3 979.02l-38.1-176.54" stroke="#5e5e5e" stroke-width="2" fill="none"/><path d="M1718.5 979.93l.06 1.68.27 1.4-.65.14-.85-3.94 1.3-.28zM1681.17 802.3l-1.9.4-.27-1.2h2z" stroke="#5e5e5e" stroke-width=".05" fill="#5e5e5e"/><path d="M1900 1020c11.05 0 20 8.95 20 20s-8.95 20-20 20h-180c-11.05 0-20-8.95-20-20s8.95-20 20-20z" stroke="#5e5e5e" stroke-width="3" fill="#fff"/><use xlink:href="#A" transform="matrix(1,0,0,1,1705,1025) translate(47.65932098765432 19.65277777777778)"/><path d="M1698.42 1039l-18.34-236.5" stroke="#5e5e5e" stroke-width="2" fill="none"/><path d="M1698.5 1039.93l.06 1.68.27 1.38-1.07.1-.3-4.03 1.16-.1zM1681.05 802.45l-1.94.15-.08-1.1h1.96z" stroke="#5e5e5e" stroke-width=".05" fill="#5e5e5e"/><path d="M2100-640c11.05 0 20 8.95 20 20s-8.95 20-20 20h-120c-11.05 0-20-8.95-20-20s8.95-20 20-20z" stroke="#5e5e5e" stroke-width="3" fill="#fff"/><use xlink:href="#B" transform="matrix(1,0,0,1,1965,-635) translate(28.73956790123457 19.65277777777778)"/><path d="M1958.24-619.03l-73.97 276.07" stroke="#5e5e5e" stroke-width="2" fill="none"/><path d="M1958.86-623l-.36 2.93.04 1.14-1.25-.33 1.03-3.9zM1885.2-342.74l-.18.74H1883l.33-1.24z" stroke="#5e5e5e" stroke-width=".05" fill="#5e5e5e"/><path d="M2120-578.5c11.05 0 20 8.95 20 20s-8.95 20-20 20h-120c-11.05 0-20-8.95-20-20s8.95-20 20-20z" stroke="#5e5e5e" stroke-width="3" fill="#fff"/><use xlink:href="#C" transform="matrix(1,0,0,1,1985,-573.5000499999996) translate(8.430925925925928 19.65277777777778)"/><path d="M1978.4-554.67l-94 211.76" stroke="#5e5e5e" stroke-width="2" fill="none"/><path d="M1978.56-556.9l.5 2.54-1.55-.68 1.04-2.33zM1885.3-342.54l-.23.54h-2.13l.6-1.33z" stroke="#5e5e5e" stroke-width=".05" fill="#5e5e5e"/><path d="M2140-522.5c11.05 0 20 8.96 20 20 0 11.05-8.95 20-20 20h-120c-11.05 0-20-8.95-20-20 0-11.04 8.95-20 20-20z" stroke="#5e5e5e" stroke-width="3" fill="#fff"/><use xlink:href="#D" transform="matrix(1,0,0,1,2005,-517.4937681554138) translate(50.992654320987654 19.65277777777778)"/><path d="M1997.92-501.68L1884.6-342.8" stroke="#5e5e5e" stroke-width="2" fill="none"/><path d="M1998.5-502.56l.05 1.36-1.44-1.03 1.64-2.28zM1885.4-342.27l-.2.27h-2.4l1-1.4z" stroke="#5e5e5e" stroke-width=".05" fill="#5e5e5e"/><path d="M2160-466.5c11.05 0 20 8.97 20 20 0 11.06-8.95 20-20 20h-120c-11.05 0-20-8.94-20-20 0-11.03 8.95-20 20-20z" stroke="#5e5e5e" stroke-width="3" fill="#fff"/><use xlink:href="#E" transform="matrix(1,0,0,1,2025,-461.487486310828) translate(21.393888888888885 19.65277777777778)"/><path d="M2017.7-445.87L1884.8-342.6" stroke="#5e5e5e" stroke-width="2" fill="none"/><path d="M2018.5-446.56l.04 1.27-.25.2-1.2-1.53 1.56-1.22zM1885.3-342h-2.88l1.8-1.4z" stroke="#5e5e5e" stroke-width=".05" fill="#5e5e5e"/><path d="M2180-410.48c11.05 0 20 8.95 20 20 0 11.04-8.95 20-20 20h-120c-11.05 0-20-8.96-20-20 0-11.05 8.95-20 20-20z" stroke="#5e5e5e" stroke-width="3" fill="#fff"/><use xlink:href="#F" transform="matrix(1,0,0,1,2045,-405.48120446624216) translate(32.44327160493826 19.65277777777778)"/><path d="M2037.55-390.18l-152.6 47.88" stroke="#5e5e5e" stroke-width="2" fill="none"/><path d="M2038.5-390.55l.04 1.08-.73.23-.57-1.86 1.4-.44zM1885.08-342h-4.22v-.03l3.83-1.2z" stroke="#5e5e5e" stroke-width=".05" fill="#5e5e5e"/><path d="M1500 19.5c11.05 0 20 8.96 20 20 0 11.05-8.95 20-20 20h-120c-11.05 0-20-8.95-20-20 0-11.04 8.95-20 20-20z" stroke="#5e5e5e" stroke-width="3" fill="#fff"/><use xlink:href="#G" transform="matrix(1,0,0,1,1365,24.503090922293268) translate(5.9617901234567885 19.65277777777778)"/><path d="M2080-700c11.05 0 20 8.95 20 20s-8.95 20-20 20h-120c-11.05 0-20-8.95-20-20s8.95-20 20-20z" stroke="#5e5e5e" stroke-width="3" fill="#fff"/><use xlink:href="#H" transform="matrix(1,0,0,1,1945,-695) translate(49.07907407407408 19.65277777777778)"/><path d="M1938.34-679L1884.17-343" stroke="#5e5e5e" stroke-width="2" fill="none"/><path d="M1938.86-682.98l-.36 2.9.04 1.13-1.17-.2.64-3.97zM1885.13-342.85l-.14.85H1883l.2-1.17z" stroke="#5e5e5e" stroke-width=".05" fill="#5e5e5e"/><path d="M1522.5 39.5h75" stroke="#5e5e5e" stroke-width="2" fill="none"/><path d="M1522.53 40.48h-1.14l.1-.9-.03-1.05h1.06zM1598.5 40.48h-1.03v-1.95h1.03z" stroke="#5e5e5e" stroke-width=".05" fill="#5e5e5e"/><path d="M2320 19.5c11.05 0 20 8.96 20 20 0 11.05-8.95 20-20 20h-140c-11.05 0-20-8.95-20-20 0-11.04 8.95-20 20-20z" stroke="#5e5e5e" stroke-width="3" fill="#fff"/><use xlink:href="#I" transform="matrix(1,0,0,1,2165,24.503090922293268) translate(5.467962962962966 19.65277777777778)"/><path d="M2157.5 39.5h-75" stroke="#5e5e5e" stroke-width="2" fill="none"/><path d="M2158.5 39.44l.03 1.04h-1.06v-1.95h1.14zM2082.53 40.48h-1.03v-1.95h1.03z" stroke="#5e5e5e" stroke-width=".05" fill="#5e5e5e"/><path d="M2320-40c11.05 0 20 8.95 20 20s-8.95 20-20 20h-140c-11.05 0-20-8.95-20-20s8.95-20 20-20z" stroke="#5e5e5e" stroke-width="3" fill="#fff"/><use xlink:href="#v" transform="matrix(1,0,0,1,2165,-35) translate(49.88154320987654 19.65277777777778)"/><path d="M2157.72-19.57L2082.3 38.9" stroke="#5e5e5e" stroke-width="2" fill="none"/><path d="M2158.5-20.07l.04 1.1-.24.2-1.2-1.55 1.58-1.23zM2082.9 39.65l-1.4 1.1v-2.48l.2-.17z" stroke="#5e5e5e" stroke-width=".05" fill="#5e5e5e"/><path d="M1500 300c11.05 0 20 8.95 20 20s-8.95 20-20 20h-120c-11.05 0-20-8.95-20-20s8.95-20 20-20z" stroke="#5e5e5e" stroke-width="3" fill="#fff"/><use xlink:href="#J" transform="matrix(1,0,0,1,1365,305) translate(47.258086419753084 19.65277777777778)"/><path d="M1522 320.87l88.17 156.76" stroke="#5e5e5e" stroke-width="2" fill="none"/><path d="M1522.85 320.42l-1.5.84.15-1.2-.06-1.67-.14-.75zM1611.78 478.5h-2.24l-.24-.42 1.7-.95z" stroke="#5e5e5e" stroke-width=".05" fill="#5e5e5e"/><path d="M1500 360c11.05 0 20 8.95 20 20s-8.95 20-20 20h-120c-11.05 0-20-8.95-20-20s8.95-20 20-20z" stroke="#5e5e5e" stroke-width="3" fill="#fff"/><use xlink:href="#w" transform="matrix(1,0,0,1,1365,365) translate(39.88154320987654 19.65277777777778)"/><path d="M1522.12 380.8l77.64 99.48" stroke="#5e5e5e" stroke-width="2" fill="none"/><path d="M1522.9 380.2l-1.54 1.2-.02-.02.16-1.3-.06-1.7v-.05zM1601.07 480.37l-.38.32-.77.9-.17.27-.8-1 1.55-1.2z" stroke="#5e5e5e" stroke-width=".05" fill="#5e5e5e"/><path d="M1500-40c11.05 0 20 8.95 20 20s-8.95 20-20 20h-120c-11.05 0-20-8.95-20-20s8.95-20 20-20z" stroke="#5e5e5e" stroke-width="3" fill="#fff"/><use xlink:href="#K" transform="matrix(1,0,0,1,1365,-35) translate(26.517345679012333 19.65277777777778)"/><path d="M1597.7 38.9l-75.4-58.3" stroke="#5e5e5e" stroke-width="2" fill="none"/><path d="M1598.5 38.27v2.46l-1.4-1.08 1.2-1.55zM1522.9-20.14l-1.18 1.54-.35-.27.13-1.06-.04-1.34z" stroke="#5e5e5e" stroke-width=".05" fill="#5e5e5e"/><path d="M2320 79c11.05 0 20 8.96 20 20 0 11.05-8.95 20-20 20h-140c-11.05 0-20-8.95-20-20 0-11.04 8.95-20 20-20z" stroke="#5e5e5e" stroke-width="3" fill="#fff"/><use xlink:href="#K" transform="matrix(1,0,0,1,2165,84.00618184458654) translate(36.51734567901233 19.65277777777778)"/><path d="M2157.7 98.4l-75.4-58.3" stroke="#5e5e5e" stroke-width="2" fill="none"/><path d="M2158.63 97.88l-.13 1.06.04 1.33-1.45-1.12 1.18-1.54zM2082.9 39.36l-1.18 1.54-.22-.16v-2.47z" stroke="#5e5e5e" stroke-width=".05" fill="#5e5e5e"/><path d="M880 166a6 6 0 0 1 6-6h28a6 6 0 0 1 6 6v28a6 6 0 0 1-6 6h-28a6 6 0 0 1-6-6z" stroke="#000" stroke-opacity="0" stroke-width="3" fill="#fff" fill-opacity="0"/><use xlink:href="#i" transform="matrix(1,0,0,1,885,165) translate(7.006172839506173 19.65277777777778)"/><path d="M2400-440c11.05 0 20 8.95 20 20s-8.95 20-20 20h-120c-11.05 0-20-8.95-20-20s8.95-20 20-20z" stroke="#5e5e5e" stroke-width="3" fill="#fff"/><use xlink:href="#L" transform="matrix(1,0,0,1,2265,-435) translate(66.3938888888889 19.65277777777778)"/><path d="M2400-380c11.05 0 20 8.95 20 20s-8.95 20-20 20h-120c-11.05 0-20-8.95-20-20s8.95-20 20-20z" stroke="#5e5e5e" stroke-width="3" fill="#fff"/><use xlink:href="#M" transform="matrix(1,0,0,1,2265,-375) translate(47.25808641975309 19.65277777777778)"/><path d="M2257.6-419.54l-55.2 28.6" stroke="#5e5e5e" stroke-width="2" fill="none"/><path d="M2258.5-420.07l.04 1.15-.5.26-.9-1.73 1.5-.77zM2202.86-390.1l-1.5.8.14-1.1-.04-1.16.5-.26z" stroke="#5e5e5e" stroke-width=".05" fill="#5e5e5e"/><path d="M2260.53-371l-61.06-8.47" stroke="#5e5e5e" stroke-width="2" fill="none"/><path d="M2262.17-371.77l-1.06 1.47-.12.34-.6-.1.26-1.92zM2199.63-380.43l-.27 1.93-1.53-.2 1.06-1.48.12-.34z" stroke="#5e5e5e" stroke-width=".05" fill="#5e5e5e"/><path d="M1500 88c11.05 0 20 8.95 20 20s-8.95 20-20 20h-120c-11.05 0-20-8.95-20-20s8.95-20 20-20z" stroke="#5e5e5e" stroke-width="3" fill="#fff"/><use xlink:href="#J" transform="matrix(1,0,0,1,1365,93) translate(47.258086419753084 19.65277777777778)"/><path d="M1522.25 107.33l75.5-67.16" stroke="#5e5e5e" stroke-width="2" fill="none"/><path d="M1522.9 108.05l-1.57 1.4.17-1.38-.04-1.33.16-.15zM1598.5 40.8l-.12.1-1.3-1.44 1.42-1.26z" stroke="#5e5e5e" stroke-width=".05" fill="#5e5e5e"/><path d="M500 620c11.05 0 20 8.95 20 20s-8.95 20-20 20H380c-11.05 0-20-8.95-20-20s8.95-20 20-20z" stroke="#5e5e5e" stroke-width="3" fill="#fff"/><use xlink:href="#L" transform="matrix(1,0,0,1,365,625) translate(66.3938888888889 19.65277777777778)"/><path d="M521.92 640.9l36.16 78.2" stroke="#5e5e5e" stroke-width="2" fill="none"/><path d="M522.82 640.52l-1.46.67.14-1.13-.06-1.68-.3-1.47zM558.5 719.93l.06 1.68.3 1.47-1.68-3.6 1.46-.66z" stroke="#5e5e5e" stroke-width=".05" fill="#5e5e5e"/><path d="M480 700c11.05 0 20 8.95 20 20s-8.95 20-20 20H360c-11.05 0-20-8.95-20-20s8.95-20 20-20z" stroke="#5e5e5e" stroke-width="3" fill="#fff"/><use xlink:href="#N" transform="matrix(1,0,0,1,345,705) translate(57.10376543209876 19.65277777777778)"/><path d="M502.5 720h55" stroke="#5e5e5e" stroke-width="2" fill="none"/><path d="M502.53 720.98h-1.14l.1-.9-.03-1.06h1.06zM558.5 719.93l.03 1.05h-1.06V719h1.14z" stroke="#5e5e5e" stroke-width=".05" fill="#5e5e5e"/><path d="M440 755c11.05 0 20 8.95 20 20s-8.95 20-20 20H320c-11.05 0-20-8.95-20-20s8.95-20 20-20z" stroke="#5e5e5e" stroke-width="3" fill="#fff"/><use xlink:href="#O" transform="matrix(1,0,0,1,305,760) translate(47.25808641975309 19.65277777777778)"/><path d="M462.37 774.5l95.26-54" stroke="#5e5e5e" stroke-width="2" fill="none"/><path d="M462.87 775.34l-1.5.86.13-1.13-.04-1.17.45-.25zM558.5 719.93l.04 1.17-.45.25-.97-1.7 1.5-.85z" stroke="#5e5e5e" stroke-width=".05" fill="#5e5e5e"/><path d="M420 810c11.05 0 20 8.95 20 20s-8.95 20-20 20H300c-11.05 0-20-8.95-20-20s8.95-20 20-20z" stroke="#5e5e5e" stroke-width="3" fill="#fff"/><use xlink:href="#P" transform="matrix(1,0,0,1,285,815) translate(58.36919753086419 19.65277777777778)"/><path d="M580 920c11.05 0 20 8.95 20 20s-8.95 20-20 20H460c-11.05 0-20-8.95-20-20s8.95-20 20-20z" stroke="#5e5e5e" stroke-width="3" fill="#fff"/><use xlink:href="#Q" transform="matrix(1,0,0,1,445,925) translate(53.430925925925926 19.65277777777778)"/><path d="M500 865c11.05 0 20 8.95 20 20s-8.95 20-20 20H380c-11.05 0-20-8.95-20-20s8.95-20 20-20z" stroke="#5e5e5e" stroke-width="3" fill="#fff"/><use xlink:href="#R" transform="matrix(1,0,0,1,365,870) translate(50.930925925925926 19.65277777777778)"/><path d="M442.23 829.32l115.54-108.64" stroke="#5e5e5e" stroke-width="2" fill="none"/><path d="M442.92 830l-1.6 1.5.18-1.43-.05-1.37.13-.1zM558.5 719.93l.04 1.37-.12.1-1.34-1.4 1.6-1.5z" stroke="#5e5e5e" stroke-width=".05" fill="#5e5e5e"/><path d="M521.72 884.02l36.56-163.04" stroke="#5e5e5e" stroke-width="2" fill="none"/><path d="M522.68 884.2l-.88 3.94-.66-.15.36-2.93-.04-1.13zM558.86 717l-.36 2.93.04 1.13-1.22-.27.88-3.94z" stroke="#5e5e5e" stroke-width=".05" fill="#5e5e5e"/><path d="M601.3 939.02l-42.6-218.04" stroke="#5e5e5e" stroke-width="2" fill="none"/><path d="M603.03 942.76l-1.9.37.37-3.06-.04-1.1.8-.16zM558.5 719.93l.04 1.1-.8.16-.77-3.96 1.9-.37z" stroke="#5e5e5e" stroke-width=".05" fill="#5e5e5e"/><defs><path fill="#282c33" d="M84 4C-5 8 30-112 23-190h32v120c0 31 7 50 39 49 72-2 45-101 50-169h31l1 190h-30c-1-10 1-25-2-33-11 22-28 36-60 37" id="S"/><path fill="#282c33" d="M135-143c-3-34-86-38-87 0 15 53 115 12 119 90S17 21 10-45l28-5c4 36 97 45 98 0-10-56-113-15-118-90-4-57 82-63 122-42 12 7 21 19 24 35" id="T"/><path fill="#282c33" d="M100-194c63 0 86 42 84 106H49c0 40 14 67 53 68 26 1 43-12 49-29l28 8c-11 28-37 45-77 45C44 4 14-33 15-96c1-61 26-98 85-98zm52 81c6-60-76-77-97-28-3 7-6 17-6 28h103" id="U"/><path fill="#282c33" d="M114-163C36-179 61-72 57 0H25l-1-190h30c1 12-1 29 2 39 6-27 23-49 58-41v29" id="V"/><g id="a"><use transform="matrix(0.06172839506172839,0,0,0.06172839506172839,0,0)" xlink:href="#S"/><use transform="matrix(0.06172839506172839,0,0,0.06172839506172839,12.345679012345679,0)" xlink:href="#T"/><use transform="matrix(0.06172839506172839,0,0,0.06172839506172839,23.45679012345679,0)" xlink:href="#U"/><use transform="matrix(0.06172839506172839,0,0,0.06172839506172839,35.80246913580247,0)" xlink:href="#V"/></g><path fill="#282c33" d="M115-194c55 1 70 41 70 98S169 2 115 4C84 4 66-9 55-30l1 105H24l-1-265h31l2 30c10-21 28-34 59-34zm-8 174c40 0 45-34 45-75s-6-73-45-74c-42 0-51 32-51 76 0 43 10 73 51 73" id="W"/><path fill="#282c33" d="M100-194c62-1 85 37 85 99 1 63-27 99-86 99S16-35 15-95c0-66 28-99 85-99zM99-20c44 1 53-31 53-75 0-43-8-75-51-75s-53 32-53 75 10 74 51 75" id="X"/><path fill="#282c33" d="M85-194c31 0 48 13 60 33l-1-100h32l1 261h-30c-2-10 0-23-3-31C134-8 116 4 85 4 32 4 16-35 15-94c0-66 23-100 70-100zm9 24c-40 0-46 34-46 75 0 40 6 74 45 74 42 0 51-32 51-76 0-42-9-74-50-73" id="Y"/><path fill="#282c33" d="M96-169c-40 0-48 33-48 73s9 75 48 75c24 0 41-14 43-38l32 2c-6 37-31 61-74 61-59 0-76-41-82-99-10-93 101-131 147-64 4 7 5 14 7 22l-32 3c-4-21-16-35-41-35" id="Z"/><path fill="#282c33" d="M59-47c-2 24 18 29 38 22v24C64 9 27 4 27-40v-127H5v-23h24l9-43h21v43h35v23H59v120" id="aa"/><g id="b"><use transform="matrix(0.06172839506172839,0,0,0.06172839506172839,0,0)" xlink:href="#W"/><use transform="matrix(0.06172839506172839,0,0,0.06172839506172839,12.345679012345679,0)" xlink:href="#V"/><use transform="matrix(0.06172839506172839,0,0,0.06172839506172839,19.691358024691358,0)" xlink:href="#X"/><use transform="matrix(0.06172839506172839,0,0,0.06172839506172839,32.03703703703704,0)" xlink:href="#Y"/><use transform="matrix(0.06172839506172839,0,0,0.06172839506172839,44.382716049382715,0)" xlink:href="#S"/><use transform="matrix(0.06172839506172839,0,0,0.06172839506172839,56.72839506172839,0)" xlink:href="#Z"/><use transform="matrix(0.06172839506172839,0,0,0.06172839506172839,67.8395061728395,0)" xlink:href="#aa"/></g><path fill="#282c33" d="M141-36C126-15 110 5 73 4 37 3 15-17 15-53c-1-64 63-63 125-63 3-35-9-54-41-54-24 1-41 7-42 31l-33-3c5-37 33-52 76-52 45 0 72 20 72 64v82c-1 20 7 32 28 27v20c-31 9-61-2-59-35zM48-53c0 20 12 33 32 33 41-3 63-29 60-74-43 2-92-5-92 41" id="ab"/><path fill="#282c33" d="M210-169c-67 3-38 105-44 169h-31v-121c0-29-5-50-35-48C34-165 62-65 56 0H25l-1-190h30c1 10-1 24 2 32 10-44 99-50 107 0 11-21 27-35 58-36 85-2 47 119 55 194h-31v-121c0-29-5-49-35-48" id="ac"/><path fill="#282c33" d="M24-231v-30h32v30H24zM24 0v-190h32V0H24" id="ad"/><path fill="#282c33" d="M117-194c89-4 53 116 60 194h-32v-121c0-31-8-49-39-48C34-167 62-67 57 0H25l-1-190h30c1 10-1 24 2 32 11-22 29-35 61-36" id="ae"/><g id="c"><use transform="matrix(0.06172839506172839,0,0,0.06172839506172839,0,0)" xlink:href="#ab"/><use transform="matrix(0.06172839506172839,0,0,0.06172839506172839,12.345679012345679,0)" xlink:href="#Y"/><use transform="matrix(0.06172839506172839,0,0,0.06172839506172839,24.691358024691358,0)" xlink:href="#ac"/><use transform="matrix(0.06172839506172839,0,0,0.06172839506172839,43.148148148148145,0)" xlink:href="#ad"/><use transform="matrix(0.06172839506172839,0,0,0.06172839506172839,48.02469135802469,0)" xlink:href="#ae"/></g><path fill="#282c33" d="M106-169C34-169 62-67 57 0H25v-261h32l-1 103c12-21 28-36 61-36 89 0 53 116 60 194h-32v-121c2-32-8-49-39-48" id="af"/><path fill="#282c33" d="M177-190C167-65 218 103 67 71c-23-6-38-20-44-43l32-5c15 47 100 32 89-28v-30C133-14 115 1 83 1 29 1 15-40 15-95c0-56 16-97 71-98 29-1 48 16 59 35 1-10 0-23 2-32h30zM94-22c36 0 50-32 50-73 0-42-14-75-50-75-39 0-46 34-46 75s6 73 46 73" id="ag"/><path fill="#282c33" d="M212-179c-10-28-35-45-73-45-59 0-87 40-87 99 0 60 29 101 89 101 43 0 62-24 78-52l27 14C228-24 195 4 139 4 59 4 22-46 18-125c-6-104 99-153 187-111 19 9 31 26 39 46" id="ah"/><g id="d"><use transform="matrix(0.06172839506172839,0,0,0.06172839506172839,0,0)" xlink:href="#T"/><use transform="matrix(0.06172839506172839,0,0,0.06172839506172839,11.11111111111111,0)" xlink:href="#af"/><use transform="matrix(0.06172839506172839,0,0,0.06172839506172839,23.45679012345679,0)" xlink:href="#X"/><use transform="matrix(0.06172839506172839,0,0,0.06172839506172839,35.80246913580247,0)" xlink:href="#W"/><use transform="matrix(0.06172839506172839,0,0,0.06172839506172839,48.148148148148145,0)" xlink:href="#W"/><use transform="matrix(0.06172839506172839,0,0,0.06172839506172839,60.49382716049382,0)" xlink:href="#ad"/><use transform="matrix(0.06172839506172839,0,0,0.06172839506172839,65.37037037037037,0)" xlink:href="#ae"/><use transform="matrix(0.06172839506172839,0,0,0.06172839506172839,77.71604938271605,0)" xlink:href="#ag"/><use transform="matrix(0.06172839506172839,0,0,0.06172839506172839,90.06172839506173,0)" xlink:href="#ah"/><use transform="matrix(0.06172839506172839,0,0,0.06172839506172839,106.0493827160494,0)" xlink:href="#ab"/><use transform="matrix(0.06172839506172839,0,0,0.06172839506172839,118.39506172839508,0)" xlink:href="#V"/><use transform="matrix(0.06172839506172839,0,0,0.06172839506172839,125.74074074074076,0)" xlink:href="#aa"/></g><path fill="#282c33" d="M24 0v-261h32V0H24" id="ai"/><g id="e"><use transform="matrix(0.06172839506172839,0,0,0.06172839506172839,0,0)" xlink:href="#Z"/><use transform="matrix(0.06172839506172839,0,0,0.06172839506172839,11.11111111111111,0)" xlink:href="#ai"/><use transform="matrix(0.06172839506172839,0,0,0.06172839506172839,15.987654320987653,0)" xlink:href="#ad"/><use transform="matrix(0.06172839506172839,0,0,0.06172839506172839,20.864197530864196,0)" xlink:href="#U"/><use transform="matrix(0.06172839506172839,0,0,0.06172839506172839,33.20987654320987,0)" xlink:href="#ae"/><use transform="matrix(0.06172839506172839,0,0,0.06172839506172839,45.55555555555555,0)" xlink:href="#aa"/></g><use transform="matrix(0.06172839506172839,0,0,0.06172839506172839,0,0)" xlink:href="#Y" id="f"/><path fill="#282c33" d="M206 0h-36l-40-164L89 0H53L-1-190h32L70-26l43-164h34l41 164 42-164h31" id="aj"/><g id="g"><use transform="matrix(0.06172839506172839,0,0,0.06172839506172839,0,0)" xlink:href="#X"/><use transform="matrix(0.06172839506172839,0,0,0.06172839506172839,12.345679012345679,0)" xlink:href="#aj"/><use transform="matrix(0.06172839506172839,0,0,0.06172839506172839,28.333333333333332,0)" xlink:href="#ae"/><use transform="matrix(0.06172839506172839,0,0,0.06172839506172839,40.67901234567901,0)" xlink:href="#T"/></g><path fill="#282c33" d="M27 0v-27h64v-190l-56 39v-29l58-41h29v221h61V0H27" id="ak"/><use transform="matrix(0.06172839506172839,0,0,0.06172839506172839,0,0)" xlink:href="#ak" id="h"/><path fill="#282c33" d="M190 0L58-211 59 0H30v-248h39L202-35l-2-213h31V0h-41" id="al"/><use transform="matrix(0.06172839506172839,0,0,0.06172839506172839,0,0)" xlink:href="#al" id="i"/><g id="j"><use transform="matrix(0.06172839506172839,0,0,0.06172839506172839,0,0)" xlink:href="#ac"/><use transform="matrix(0.06172839506172839,0,0,0.06172839506172839,18.456790123456788,0)" xlink:href="#ab"/><use transform="matrix(0.06172839506172839,0,0,0.06172839506172839,30.80246913580247,0)" xlink:href="#ae"/><use transform="matrix(0.06172839506172839,0,0,0.06172839506172839,43.148148148148145,0)" xlink:href="#ab"/><use transform="matrix(0.06172839506172839,0,0,0.06172839506172839,55.49382716049382,0)" xlink:href="#ag"/><use transform="matrix(0.06172839506172839,0,0,0.06172839506172839,67.8395061728395,0)" xlink:href="#U"/></g><path fill="#282c33" d="M30-248c87 1 191-15 191 75 0 78-77 80-158 76V0H30v-248zm33 125c57 0 124 11 124-50 0-59-68-47-124-48v98" id="am"/><g id="k"><use transform="matrix(0.06172839506172839,0,0,0.06172839506172839,0,0)" xlink:href="#X"/><use transform="matrix(0.06172839506172839,0,0,0.06172839506172839,12.345679012345679,0)" xlink:href="#V"/><use transform="matrix(0.06172839506172839,0,0,0.06172839506172839,19.691358024691358,0)" xlink:href="#Y"/><use transform="matrix(0.06172839506172839,0,0,0.06172839506172839,32.03703703703704,0)" xlink:href="#U"/><use transform="matrix(0.06172839506172839,0,0,0.06172839506172839,44.382716049382715,0)" xlink:href="#V"/><use transform="matrix(0.06172839506172839,0,0,0.06172839506172839,51.72839506172839,0)" xlink:href="#am"/><use transform="matrix(0.06172839506172839,0,0,0.06172839506172839,66.5432098765432,0)" xlink:href="#V"/><use transform="matrix(0.06172839506172839,0,0,0.06172839506172839,73.88888888888889,0)" xlink:href="#X"/><use transform="matrix(0.06172839506172839,0,0,0.06172839506172839,86.23456790123457,0)" xlink:href="#Y"/><use transform="matrix(0.06172839506172839,0,0,0.06172839506172839,98.58024691358025,0)" xlink:href="#S"/><use transform="matrix(0.06172839506172839,0,0,0.06172839506172839,110.92592592592594,0)" xlink:href="#Z"/><use transform="matrix(0.06172839506172839,0,0,0.06172839506172839,122.03703703703705,0)" xlink:href="#aa"/></g><g id="l"><use transform="matrix(0.06172839506172839,0,0,0.06172839506172839,0,0)" xlink:href="#Z"/><use transform="matrix(0.06172839506172839,0,0,0.06172839506172839,11.11111111111111,0)" xlink:href="#ab"/><use transform="matrix(0.06172839506172839,0,0,0.06172839506172839,23.45679012345679,0)" xlink:href="#V"/><use transform="matrix(0.06172839506172839,0,0,0.06172839506172839,30.80246913580247,0)" xlink:href="#aa"/><use transform="matrix(0.06172839506172839,0,0,0.06172839506172839,36.97530864197531,0)" xlink:href="#am"/><use transform="matrix(0.06172839506172839,0,0,0.06172839506172839,51.79012345679013,0)" xlink:href="#V"/><use transform="matrix(0.06172839506172839,0,0,0.06172839506172839,59.135802469135804,0)" xlink:href="#X"/><use transform="matrix(0.06172839506172839,0,0,0.06172839506172839,71.48148148148148,0)" xlink:href="#Y"/><use transform="matrix(0.06172839506172839,0,0,0.06172839506172839,83.82716049382717,0)" xlink:href="#S"/><use transform="matrix(0.06172839506172839,0,0,0.06172839506172839,96.17283950617285,0)" xlink:href="#Z"/><use transform="matrix(0.06172839506172839,0,0,0.06172839506172839,107.28395061728396,0)" xlink:href="#aa"/></g><g id="m"><use transform="matrix(0.06172839506172839,0,0,0.06172839506172839,0,0)" xlink:href="#Z"/><use transform="matrix(0.06172839506172839,0,0,0.06172839506172839,11.11111111111111,0)" xlink:href="#X"/><use transform="matrix(0.06172839506172839,0,0,0.06172839506172839,23.45679012345679,0)" xlink:href="#ae"/><use transform="matrix(0.06172839506172839,0,0,0.06172839506172839,35.80246913580247,0)" xlink:href="#aa"/><use transform="matrix(0.06172839506172839,0,0,0.06172839506172839,41.97530864197531,0)" xlink:href="#ab"/><use transform="matrix(0.06172839506172839,0,0,0.06172839506172839,54.32098765432099,0)" xlink:href="#ad"/><use transform="matrix(0.06172839506172839,0,0,0.06172839506172839,59.19753086419753,0)" xlink:href="#ae"/><use transform="matrix(0.06172839506172839,0,0,0.06172839506172839,71.54320987654322,0)" xlink:href="#T"/></g><path fill="#282c33" d="M101-234c-31-9-42 10-38 44h38v23H63V0H32v-167H5v-23h27c-7-52 17-82 69-68v24" id="an"/><g id="n"><use transform="matrix(0.06172839506172839,0,0,0.06172839506172839,0,0)" xlink:href="#W"/><use transform="matrix(0.06172839506172839,0,0,0.06172839506172839,12.345679012345679,0)" xlink:href="#U"/><use transform="matrix(0.06172839506172839,0,0,0.06172839506172839,24.691358024691358,0)" xlink:href="#V"/><use transform="matrix(0.06172839506172839,0,0,0.06172839506172839,32.03703703703704,0)" xlink:href="#an"/><use transform="matrix(0.06172839506172839,0,0,0.06172839506172839,38.20987654320988,0)" xlink:href="#X"/><use transform="matrix(0.06172839506172839,0,0,0.06172839506172839,50.55555555555556,0)" xlink:href="#V"/><use transform="matrix(0.06172839506172839,0,0,0.06172839506172839,57.901234567901234,0)" xlink:href="#ac"/></g><g id="o"><use transform="matrix(0.06172839506172839,0,0,0.06172839506172839,0,0)" xlink:href="#X"/><use transform="matrix(0.06172839506172839,0,0,0.06172839506172839,12.345679012345679,0)" xlink:href="#V"/><use transform="matrix(0.06172839506172839,0,0,0.06172839506172839,19.691358024691358,0)" xlink:href="#Y"/><use transform="matrix(0.06172839506172839,0,0,0.06172839506172839,32.03703703703704,0)" xlink:href="#U"/><use transform="matrix(0.06172839506172839,0,0,0.06172839506172839,44.382716049382715,0)" xlink:href="#V"/></g><g id="p"><use transform="matrix(0.06172839506172839,0,0,0.06172839506172839,0,0)" xlink:href="#ad"/><use transform="matrix(0.06172839506172839,0,0,0.06172839506172839,4.876543209876543,0)" xlink:href="#ae"/><use transform="matrix(0.06172839506172839,0,0,0.06172839506172839,17.22222222222222,0)" xlink:href="#Z"/><use transform="matrix(0.06172839506172839,0,0,0.06172839506172839,28.333333333333332,0)" xlink:href="#ai"/><use transform="matrix(0.06172839506172839,0,0,0.06172839506172839,33.20987654320987,0)" xlink:href="#S"/><use transform="matrix(0.06172839506172839,0,0,0.06172839506172839,45.55555555555555,0)" xlink:href="#Y"/><use transform="matrix(0.06172839506172839,0,0,0.06172839506172839,57.90123456790123,0)" xlink:href="#U"/><use transform="matrix(0.06172839506172839,0,0,0.06172839506172839,70.24691358024691,0)" xlink:href="#T"/></g><g id="q"><use transform="matrix(0.06172839506172839,0,0,0.06172839506172839,0,0)" xlink:href="#Z"/><use transform="matrix(0.06172839506172839,0,0,0.06172839506172839,11.11111111111111,0)" xlink:href="#W"/><use transform="matrix(0.06172839506172839,0,0,0.06172839506172839,23.45679012345679,0)" xlink:href="#an"/></g><g id="r"><use transform="matrix(0.06172839506172839,0,0,0.06172839506172839,0,0)" xlink:href="#ae"/><use transform="matrix(0.06172839506172839,0,0,0.06172839506172839,12.345679012345679,0)" xlink:href="#X"/><use transform="matrix(0.06172839506172839,0,0,0.06172839506172839,24.691358024691358,0)" xlink:href="#ac"/><use transform="matrix(0.06172839506172839,0,0,0.06172839506172839,43.148148148148145,0)" xlink:href="#U"/></g><g id="s"><use transform="matrix(0.06172839506172839,0,0,0.06172839506172839,0,0)" xlink:href="#U"/><use transform="matrix(0.06172839506172839,0,0,0.06172839506172839,12.345679012345679,0)" xlink:href="#ac"/><use transform="matrix(0.06172839506172839,0,0,0.06172839506172839,30.80246913580247,0)" xlink:href="#ab"/><use transform="matrix(0.06172839506172839,0,0,0.06172839506172839,43.148148148148145,0)" xlink:href="#ad"/><use transform="matrix(0.06172839506172839,0,0,0.06172839506172839,48.02469135802469,0)" xlink:href="#ai"/></g><g id="t"><use transform="matrix(0.06172839506172839,0,0,0.06172839506172839,0,0)" xlink:href="#W"/><use transform="matrix(0.06172839506172839,0,0,0.06172839506172839,12.345679012345679,0)" xlink:href="#af"/><use transform="matrix(0.06172839506172839,0,0,0.06172839506172839,24.691358024691358,0)" xlink:href="#X"/><use transform="matrix(0.06172839506172839,0,0,0.06172839506172839,37.03703703703704,0)" xlink:href="#ae"/><use transform="matrix(0.06172839506172839,0,0,0.06172839506172839,49.382716049382715,0)" xlink:href="#U"/></g><g id="u"><use transform="matrix(0.06172839506172839,0,0,0.06172839506172839,0,0)" xlink:href="#ab"/><use transform="matrix(0.06172839506172839,0,0,0.06172839506172839,12.345679012345679,0)" xlink:href="#Y"/><use transform="matrix(0.06172839506172839,0,0,0.06172839506172839,24.691358024691358,0)" xlink:href="#Y"/><use transform="matrix(0.06172839506172839,0,0,0.06172839506172839,37.03703703703704,0)" xlink:href="#V"/><use transform="matrix(0.06172839506172839,0,0,0.06172839506172839,44.382716049382715,0)" xlink:href="#U"/><use transform="matrix(0.06172839506172839,0,0,0.06172839506172839,56.72839506172839,0)" xlink:href="#T"/><use transform="matrix(0.06172839506172839,0,0,0.06172839506172839,67.8395061728395,0)" xlink:href="#T"/></g><path fill="#282c33" d="M33 0v-248h34V0H33" id="ao"/><g id="v"><use transform="matrix(0.06172839506172839,0,0,0.06172839506172839,0,0)" xlink:href="#X"/><use transform="matrix(0.06172839506172839,0,0,0.06172839506172839,12.345679012345679,0)" xlink:href="#V"/><use transform="matrix(0.06172839506172839,0,0,0.06172839506172839,19.691358024691358,0)" xlink:href="#Y"/><use transform="matrix(0.06172839506172839,0,0,0.06172839506172839,32.03703703703704,0)" xlink:href="#U"/><use transform="matrix(0.06172839506172839,0,0,0.06172839506172839,44.382716049382715,0)" xlink:href="#V"/><use transform="matrix(0.06172839506172839,0,0,0.06172839506172839,51.72839506172839,0)" xlink:href="#ao"/><use transform="matrix(0.06172839506172839,0,0,0.06172839506172839,57.901234567901234,0)" xlink:href="#Y"/></g><g id="w"><use transform="matrix(0.06172839506172839,0,0,0.06172839506172839,0,0)" xlink:href="#Z"/><use transform="matrix(0.06172839506172839,0,0,0.06172839506172839,11.11111111111111,0)" xlink:href="#ai"/><use transform="matrix(0.06172839506172839,0,0,0.06172839506172839,15.987654320987653,0)" xlink:href="#ad"/><use transform="matrix(0.06172839506172839,0,0,0.06172839506172839,20.864197530864196,0)" xlink:href="#U"/><use transform="matrix(0.06172839506172839,0,0,0.06172839506172839,33.20987654320987,0)" xlink:href="#ae"/><use transform="matrix(0.06172839506172839,0,0,0.06172839506172839,45.55555555555555,0)" xlink:href="#aa"/><use transform="matrix(0.06172839506172839,0,0,0.06172839506172839,51.72839506172839,0)" xlink:href="#ao"/><use transform="matrix(0.06172839506172839,0,0,0.06172839506172839,57.901234567901234,0)" xlink:href="#Y"/></g><path fill="#282c33" d="M30-248c118-7 216 8 213 122C240-48 200 0 122 0H30v-248zM63-27c89 8 146-16 146-99s-60-101-146-95v194" id="ap"/><g id="x"><use transform="matrix(0.06172839506172839,0,0,0.06172839506172839,0,0)" xlink:href="#X"/><use transform="matrix(0.06172839506172839,0,0,0.06172839506172839,12.345679012345679,0)" xlink:href="#V"/><use transform="matrix(0.06172839506172839,0,0,0.06172839506172839,19.691358024691358,0)" xlink:href="#Y"/><use transform="matrix(0.06172839506172839,0,0,0.06172839506172839,32.03703703703704,0)" xlink:href="#U"/><use transform="matrix(0.06172839506172839,0,0,0.06172839506172839,44.382716049382715,0)" xlink:href="#V"/><use transform="matrix(0.06172839506172839,0,0,0.06172839506172839,51.72839506172839,0)" xlink:href="#ap"/><use transform="matrix(0.06172839506172839,0,0,0.06172839506172839,67.71604938271605,0)" xlink:href="#ab"/><use transform="matrix(0.06172839506172839,0,0,0.06172839506172839,80.06172839506173,0)" xlink:href="#aa"/><use transform="matrix(0.06172839506172839,0,0,0.06172839506172839,86.23456790123457,0)" xlink:href="#U"/></g><path fill="#282c33" d="M205 0l-28-72H64L36 0H1l101-248h38L239 0h-34zm-38-99l-47-123c-12 45-31 82-46 123h93" id="aq"/><g id="y"><use transform="matrix(0.06172839506172839,0,0,0.06172839506172839,0,0)" xlink:href="#T"/><use transform="matrix(0.06172839506172839,0,0,0.06172839506172839,11.11111111111111,0)" xlink:href="#af"/><use transform="matrix(0.06172839506172839,0,0,0.06172839506172839,23.45679012345679,0)" xlink:href="#X"/><use transform="matrix(0.06172839506172839,0,0,0.06172839506172839,35.80246913580247,0)" xlink:href="#W"/><use transform="matrix(0.06172839506172839,0,0,0.06172839506172839,48.148148148148145,0)" xlink:href="#W"/><use transform="matrix(0.06172839506172839,0,0,0.06172839506172839,60.49382716049382,0)" xlink:href="#ad"/><use transform="matrix(0.06172839506172839,0,0,0.06172839506172839,65.37037037037037,0)" xlink:href="#ae"/><use transform="matrix(0.06172839506172839,0,0,0.06172839506172839,77.71604938271605,0)" xlink:href="#ag"/><use transform="matrix(0.06172839506172839,0,0,0.06172839506172839,90.06172839506173,0)" xlink:href="#aq"/><use transform="matrix(0.06172839506172839,0,0,0.06172839506172839,104.87654320987654,0)" xlink:href="#Y"/><use transform="matrix(0.06172839506172839,0,0,0.06172839506172839,117.22222222222223,0)" xlink:href="#Y"/><use transform="matrix(0.06172839506172839,0,0,0.06172839506172839,129.5679012345679,0)" xlink:href="#V"/><use transform="matrix(0.06172839506172839,0,0,0.06172839506172839,136.91358024691357,0)" xlink:href="#U"/><use transform="matrix(0.06172839506172839,0,0,0.06172839506172839,149.25925925925924,0)" xlink:href="#T"/><use transform="matrix(0.06172839506172839,0,0,0.06172839506172839,160.37037037037035,0)" xlink:href="#T"/></g><g id="z"><use transform="matrix(0.06172839506172839,0,0,0.06172839506172839,0,0)" xlink:href="#aa"/><use transform="matrix(0.06172839506172839,0,0,0.06172839506172839,6.172839506172839,0)" xlink:href="#X"/><use transform="matrix(0.06172839506172839,0,0,0.06172839506172839,18.51851851851852,0)" xlink:href="#aa"/><use transform="matrix(0.06172839506172839,0,0,0.06172839506172839,24.691358024691358,0)" xlink:href="#ab"/><use transform="matrix(0.06172839506172839,0,0,0.06172839506172839,37.03703703703704,0)" xlink:href="#ai"/><use transform="matrix(0.06172839506172839,0,0,0.06172839506172839,41.91358024691358,0)" xlink:href="#aq"/><use transform="matrix(0.06172839506172839,0,0,0.06172839506172839,56.72839506172839,0)" xlink:href="#ac"/><use transform="matrix(0.06172839506172839,0,0,0.06172839506172839,75.18518518518518,0)" xlink:href="#X"/><use transform="matrix(0.06172839506172839,0,0,0.06172839506172839,87.53086419753086,0)" xlink:href="#S"/><use transform="matrix(0.06172839506172839,0,0,0.06172839506172839,99.87654320987654,0)" xlink:href="#ae"/><use transform="matrix(0.06172839506172839,0,0,0.06172839506172839,112.22222222222223,0)" xlink:href="#aa"/></g><path fill="#282c33" d="M185-189c-5-48-123-54-124 2 14 75 158 14 163 119 3 78-121 87-175 55-17-10-28-26-33-46l33-7c5 56 141 63 141-1 0-78-155-14-162-118-5-82 145-84 179-34 5 7 8 16 11 25" id="ar"/><g id="A"><use transform="matrix(0.06172839506172839,0,0,0.06172839506172839,0,0)" xlink:href="#X"/><use transform="matrix(0.06172839506172839,0,0,0.06172839506172839,12.345679012345679,0)" xlink:href="#V"/><use transform="matrix(0.06172839506172839,0,0,0.06172839506172839,19.691358024691358,0)" xlink:href="#Y"/><use transform="matrix(0.06172839506172839,0,0,0.06172839506172839,32.03703703703704,0)" xlink:href="#U"/><use transform="matrix(0.06172839506172839,0,0,0.06172839506172839,44.382716049382715,0)" xlink:href="#V"/><use transform="matrix(0.06172839506172839,0,0,0.06172839506172839,51.72839506172839,0)" xlink:href="#ar"/><use transform="matrix(0.06172839506172839,0,0,0.06172839506172839,66.5432098765432,0)" xlink:href="#aa"/><use transform="matrix(0.06172839506172839,0,0,0.06172839506172839,72.71604938271604,0)" xlink:href="#ab"/><use transform="matrix(0.06172839506172839,0,0,0.06172839506172839,85.06172839506172,0)" xlink:href="#aa"/><use transform="matrix(0.06172839506172839,0,0,0.06172839506172839,91.23456790123456,0)" xlink:href="#S"/><use transform="matrix(0.06172839506172839,0,0,0.06172839506172839,103.58024691358024,0)" xlink:href="#T"/></g><g id="B"><use transform="matrix(0.06172839506172839,0,0,0.06172839506172839,0,0)" xlink:href="#W"/><use transform="matrix(0.06172839506172839,0,0,0.06172839506172839,12.345679012345679,0)" xlink:href="#V"/><use transform="matrix(0.06172839506172839,0,0,0.06172839506172839,19.691358024691358,0)" xlink:href="#X"/><use transform="matrix(0.06172839506172839,0,0,0.06172839506172839,32.03703703703704,0)" xlink:href="#Y"/><use transform="matrix(0.06172839506172839,0,0,0.06172839506172839,44.382716049382715,0)" xlink:href="#S"/><use transform="matrix(0.06172839506172839,0,0,0.06172839506172839,56.72839506172839,0)" xlink:href="#Z"/><use transform="matrix(0.06172839506172839,0,0,0.06172839506172839,67.8395061728395,0)" xlink:href="#aa"/><use transform="matrix(0.06172839506172839,0,0,0.06172839506172839,74.01234567901234,0)" xlink:href="#ao"/><use transform="matrix(0.06172839506172839,0,0,0.06172839506172839,80.18518518518518,0)" xlink:href="#Y"/><path fill="#282c33" d="M-1.1 1.54h94.74v1.63H-1.1z"/></g><g id="C"><use transform="matrix(0.06172839506172839,0,0,0.06172839506172839,0,0)" xlink:href="#W"/><use transform="matrix(0.06172839506172839,0,0,0.06172839506172839,12.345679012345679,0)" xlink:href="#V"/><use transform="matrix(0.06172839506172839,0,0,0.06172839506172839,19.691358024691358,0)" xlink:href="#X"/><use transform="matrix(0.06172839506172839,0,0,0.06172839506172839,32.03703703703704,0)" xlink:href="#Y"/><use transform="matrix(0.06172839506172839,0,0,0.06172839506172839,44.382716049382715,0)" xlink:href="#S"/><use transform="matrix(0.06172839506172839,0,0,0.06172839506172839,56.72839506172839,0)" xlink:href="#Z"/><use transform="matrix(0.06172839506172839,0,0,0.06172839506172839,67.8395061728395,0)" xlink:href="#aa"/><use transform="matrix(0.06172839506172839,0,0,0.06172839506172839,74.01234567901234,0)" xlink:href="#al"/><use transform="matrix(0.06172839506172839,0,0,0.06172839506172839,90,0)" xlink:href="#ab"/><use transform="matrix(0.06172839506172839,0,0,0.06172839506172839,102.34567901234568,0)" xlink:href="#ac"/><use transform="matrix(0.06172839506172839,0,0,0.06172839506172839,120.80246913580247,0)" xlink:href="#U"/></g><g id="D"><use transform="matrix(0.06172839506172839,0,0,0.06172839506172839,0,0)" xlink:href="#W"/><use transform="matrix(0.06172839506172839,0,0,0.06172839506172839,12.345679012345679,0)" xlink:href="#V"/><use transform="matrix(0.06172839506172839,0,0,0.06172839506172839,19.691358024691358,0)" xlink:href="#ad"/><use transform="matrix(0.06172839506172839,0,0,0.06172839506172839,24.5679012345679,0)" xlink:href="#Z"/><use transform="matrix(0.06172839506172839,0,0,0.06172839506172839,35.67901234567901,0)" xlink:href="#U"/></g><g id="E"><use transform="matrix(0.06172839506172839,0,0,0.06172839506172839,0,0)" xlink:href="#Y"/><use transform="matrix(0.06172839506172839,0,0,0.06172839506172839,12.345679012345679,0)" xlink:href="#U"/><use transform="matrix(0.06172839506172839,0,0,0.06172839506172839,24.691358024691358,0)" xlink:href="#T"/><use transform="matrix(0.06172839506172839,0,0,0.06172839506172839,35.80246913580247,0)" xlink:href="#Z"/><use transform="matrix(0.06172839506172839,0,0,0.06172839506172839,46.91358024691358,0)" xlink:href="#V"/><use transform="matrix(0.06172839506172839,0,0,0.06172839506172839,54.25925925925926,0)" xlink:href="#ad"/><use transform="matrix(0.06172839506172839,0,0,0.06172839506172839,59.135802469135804,0)" xlink:href="#W"/><use transform="matrix(0.06172839506172839,0,0,0.06172839506172839,71.48148148148148,0)" xlink:href="#aa"/><use transform="matrix(0.06172839506172839,0,0,0.06172839506172839,77.65432098765432,0)" xlink:href="#ad"/><use transform="matrix(0.06172839506172839,0,0,0.06172839506172839,82.53086419753086,0)" xlink:href="#X"/><use transform="matrix(0.06172839506172839,0,0,0.06172839506172839,94.87654320987654,0)" xlink:href="#ae"/></g><path fill="#282c33" d="M179-190L93 31C79 59 56 82 12 73V49c39 6 53-20 64-50L1-190h34L92-34l54-156h33" id="as"/><g id="F"><use transform="matrix(0.06172839506172839,0,0,0.06172839506172839,0,0)" xlink:href="#Z"/><use transform="matrix(0.06172839506172839,0,0,0.06172839506172839,11.11111111111111,0)" xlink:href="#ab"/><use transform="matrix(0.06172839506172839,0,0,0.06172839506172839,23.45679012345679,0)" xlink:href="#aa"/><use transform="matrix(0.06172839506172839,0,0,0.06172839506172839,29.62962962962963,0)" xlink:href="#U"/><use transform="matrix(0.06172839506172839,0,0,0.06172839506172839,41.97530864197531,0)" xlink:href="#ag"/><use transform="matrix(0.06172839506172839,0,0,0.06172839506172839,54.32098765432099,0)" xlink:href="#X"/><use transform="matrix(0.06172839506172839,0,0,0.06172839506172839,66.66666666666667,0)" xlink:href="#V"/><use transform="matrix(0.06172839506172839,0,0,0.06172839506172839,74.01234567901236,0)" xlink:href="#as"/></g><path fill="#282c33" d="M145-31C134-9 116 4 85 4 32 4 16-35 15-94c0-59 17-99 70-100 32-1 48 14 60 33 0-11-1-24 2-32h30l-1 268h-32zM93-21c41 0 51-33 51-76s-8-73-50-73c-40 0-46 35-46 75s5 74 45 74" id="at"/><g id="G"><use transform="matrix(0.06172839506172839,0,0,0.06172839506172839,0,0)" xlink:href="#at"/><use transform="matrix(0.06172839506172839,0,0,0.06172839506172839,12.345679012345679,0)" xlink:href="#S"/><use transform="matrix(0.06172839506172839,0,0,0.06172839506172839,24.691358024691358,0)" xlink:href="#ab"/><use transform="matrix(0.06172839506172839,0,0,0.06172839506172839,37.03703703703704,0)" xlink:href="#ae"/><use transform="matrix(0.06172839506172839,0,0,0.06172839506172839,49.382716049382715,0)" xlink:href="#aa"/><use transform="matrix(0.06172839506172839,0,0,0.06172839506172839,55.55555555555556,0)" xlink:href="#ad"/><use transform="matrix(0.06172839506172839,0,0,0.06172839506172839,60.4320987654321,0)" xlink:href="#aa"/><use transform="matrix(0.06172839506172839,0,0,0.06172839506172839,66.60493827160494,0)" xlink:href="#as"/><use transform="matrix(0.06172839506172839,0,0,0.06172839506172839,77.71604938271605,0)" xlink:href="#ao"/><use transform="matrix(0.06172839506172839,0,0,0.06172839506172839,83.88888888888889,0)" xlink:href="#ae"/><use transform="matrix(0.06172839506172839,0,0,0.06172839506172839,96.23456790123457,0)" xlink:href="#ah"/><use transform="matrix(0.06172839506172839,0,0,0.06172839506172839,112.22222222222223,0)" xlink:href="#ab"/><use transform="matrix(0.06172839506172839,0,0,0.06172839506172839,124.56790123456791,0)" xlink:href="#V"/><use transform="matrix(0.06172839506172839,0,0,0.06172839506172839,131.9135802469136,0)" xlink:href="#aa"/></g><path fill="#282c33" d="M143 0L79-87 56-68V0H24v-261h32v163l83-92h37l-77 82L181 0h-38" id="au"/><g id="H"><use transform="matrix(0.06172839506172839,0,0,0.06172839506172839,0,0)" xlink:href="#T"/><use transform="matrix(0.06172839506172839,0,0,0.06172839506172839,11.11111111111111,0)" xlink:href="#aa"/><use transform="matrix(0.06172839506172839,0,0,0.06172839506172839,17.28395061728395,0)" xlink:href="#X"/><use transform="matrix(0.06172839506172839,0,0,0.06172839506172839,29.629629629629626,0)" xlink:href="#Z"/><use transform="matrix(0.06172839506172839,0,0,0.06172839506172839,40.74074074074073,0)" xlink:href="#au"/></g><path fill="#282c33" d="M140-251c81 0 123 46 123 126C263-46 219 4 140 4 59 4 17-45 17-125s42-126 123-126zm0 227c63 0 89-41 89-101s-29-99-89-99c-61 0-89 39-89 99S79-25 140-24" id="av"/><g id="I"><use transform="matrix(0.06172839506172839,0,0,0.06172839506172839,0,0)" xlink:href="#at"/><use transform="matrix(0.06172839506172839,0,0,0.06172839506172839,12.345679012345679,0)" xlink:href="#S"/><use transform="matrix(0.06172839506172839,0,0,0.06172839506172839,24.691358024691358,0)" xlink:href="#ab"/><use transform="matrix(0.06172839506172839,0,0,0.06172839506172839,37.03703703703704,0)" xlink:href="#ae"/><use transform="matrix(0.06172839506172839,0,0,0.06172839506172839,49.382716049382715,0)" xlink:href="#aa"/><use transform="matrix(0.06172839506172839,0,0,0.06172839506172839,55.55555555555556,0)" xlink:href="#ad"/><use transform="matrix(0.06172839506172839,0,0,0.06172839506172839,60.4320987654321,0)" xlink:href="#aa"/><use transform="matrix(0.06172839506172839,0,0,0.06172839506172839,66.60493827160494,0)" xlink:href="#as"/><use transform="matrix(0.06172839506172839,0,0,0.06172839506172839,77.71604938271605,0)" xlink:href="#av"/><use transform="matrix(0.06172839506172839,0,0,0.06172839506172839,95,0)" xlink:href="#V"/><use transform="matrix(0.06172839506172839,0,0,0.06172839506172839,102.34567901234568,0)" xlink:href="#Y"/><use transform="matrix(0.06172839506172839,0,0,0.06172839506172839,114.69135802469137,0)" xlink:href="#U"/><use transform="matrix(0.06172839506172839,0,0,0.06172839506172839,127.03703703703705,0)" xlink:href="#V"/><use transform="matrix(0.06172839506172839,0,0,0.06172839506172839,134.38271604938274,0)" xlink:href="#U"/><use transform="matrix(0.06172839506172839,0,0,0.06172839506172839,146.7283950617284,0)" xlink:href="#Y"/></g><g id="J"><use transform="matrix(0.06172839506172839,0,0,0.06172839506172839,0,0)" xlink:href="#Z"/><use transform="matrix(0.06172839506172839,0,0,0.06172839506172839,11.11111111111111,0)" xlink:href="#ab"/><use transform="matrix(0.06172839506172839,0,0,0.06172839506172839,23.45679012345679,0)" xlink:href="#V"/><use transform="matrix(0.06172839506172839,0,0,0.06172839506172839,30.80246913580247,0)" xlink:href="#aa"/><use transform="matrix(0.06172839506172839,0,0,0.06172839506172839,36.97530864197531,0)" xlink:href="#ao"/><use transform="matrix(0.06172839506172839,0,0,0.06172839506172839,43.14814814814815,0)" xlink:href="#Y"/></g><path fill="#282c33" d="M137 0h-34L2-248h35l83 218 83-218h36" id="aw"/><g id="K"><use transform="matrix(0.06172839506172839,0,0,0.06172839506172839,0,0)" xlink:href="#aa"/><use transform="matrix(0.06172839506172839,0,0,0.06172839506172839,6.172839506172839,0)" xlink:href="#X"/><use transform="matrix(0.06172839506172839,0,0,0.06172839506172839,18.51851851851852,0)" xlink:href="#aa"/><use transform="matrix(0.06172839506172839,0,0,0.06172839506172839,24.691358024691358,0)" xlink:href="#ab"/><use transform="matrix(0.06172839506172839,0,0,0.06172839506172839,37.03703703703704,0)" xlink:href="#ai"/><use transform="matrix(0.06172839506172839,0,0,0.06172839506172839,41.91358024691358,0)" xlink:href="#aw"/><use transform="matrix(0.06172839506172839,0,0,0.06172839506172839,55.061728395061735,0)" xlink:href="#ab"/><use transform="matrix(0.06172839506172839,0,0,0.06172839506172839,67.40740740740742,0)" xlink:href="#ai"/><use transform="matrix(0.06172839506172839,0,0,0.06172839506172839,72.28395061728396,0)" xlink:href="#S"/><use transform="matrix(0.06172839506172839,0,0,0.06172839506172839,84.62962962962965,0)" xlink:href="#U"/></g><g id="L"><use transform="matrix(0.06172839506172839,0,0,0.06172839506172839,0,0)" xlink:href="#ad"/><use transform="matrix(0.06172839506172839,0,0,0.06172839506172839,4.876543209876543,0)" xlink:href="#Y"/><path fill="#282c33" d="M-1.1 1.54h19.43v1.63H-1.1z"/></g><g id="M"><use transform="matrix(0.06172839506172839,0,0,0.06172839506172839,0,0)" xlink:href="#ae"/><use transform="matrix(0.06172839506172839,0,0,0.06172839506172839,12.345679012345679,0)" xlink:href="#ab"/><use transform="matrix(0.06172839506172839,0,0,0.06172839506172839,24.691358024691358,0)" xlink:href="#ac"/><use transform="matrix(0.06172839506172839,0,0,0.06172839506172839,43.148148148148145,0)" xlink:href="#U"/></g><g id="N"><use transform="matrix(0.06172839506172839,0,0,0.06172839506172839,0,0)" xlink:href="#Z"/><use transform="matrix(0.06172839506172839,0,0,0.06172839506172839,11.11111111111111,0)" xlink:href="#U"/><use transform="matrix(0.06172839506172839,0,0,0.06172839506172839,23.45679012345679,0)" xlink:href="#W"/></g><g id="O"><use transform="matrix(0.06172839506172839,0,0,0.06172839506172839,0,0)" xlink:href="#T"/><use transform="matrix(0.06172839506172839,0,0,0.06172839506172839,11.11111111111111,0)" xlink:href="#aa"/><use transform="matrix(0.06172839506172839,0,0,0.06172839506172839,17.28395061728395,0)" xlink:href="#V"/><use transform="matrix(0.06172839506172839,0,0,0.06172839506172839,24.629629629629626,0)" xlink:href="#U"/><use transform="matrix(0.06172839506172839,0,0,0.06172839506172839,36.9753086419753,0)" xlink:href="#U"/><use transform="matrix(0.06172839506172839,0,0,0.06172839506172839,49.32098765432098,0)" xlink:href="#aa"/></g><g id="P"><use transform="matrix(0.06172839506172839,0,0,0.06172839506172839,0,0)" xlink:href="#Z"/><use transform="matrix(0.06172839506172839,0,0,0.06172839506172839,11.11111111111111,0)" xlink:href="#ad"/><use transform="matrix(0.06172839506172839,0,0,0.06172839506172839,15.987654320987653,0)" xlink:href="#aa"/><use transform="matrix(0.06172839506172839,0,0,0.06172839506172839,22.160493827160494,0)" xlink:href="#as"/></g><g id="Q"><use transform="matrix(0.06172839506172839,0,0,0.06172839506172839,0,0)" xlink:href="#ae"/><use transform="matrix(0.06172839506172839,0,0,0.06172839506172839,12.345679012345679,0)" xlink:href="#S"/><use transform="matrix(0.06172839506172839,0,0,0.06172839506172839,24.691358024691358,0)" xlink:href="#ac"/></g><g id="R"><use transform="matrix(0.06172839506172839,0,0,0.06172839506172839,0,0)" xlink:href="#T"/><use transform="matrix(0.06172839506172839,0,0,0.06172839506172839,11.11111111111111,0)" xlink:href="#aa"/><use transform="matrix(0.06172839506172839,0,0,0.06172839506172839,17.28395061728395,0)" xlink:href="#ab"/><use transform="matrix(0.06172839506172839,0,0,0.06172839506172839,29.629629629629626,0)" xlink:href="#aa"/><use transform="matrix(0.06172839506172839,0,0,0.06172839506172839,35.80246913580247,0)" xlink:href="#U"/></g></defs></g></svg>
